<svg height="512" viewBox="0 0 512 512" width="512" xmlns="http://www.w3.org/2000/svg"><g id="flat"><path d="m352 120 2.577 15.464a158.585 158.585 0 0 1 -2.577 64.536l-16 48-128 120-10.593-4.237a83.3 83.3 0 0 1 -43.571-40.092 83.3 83.3 0 0 1 -8.68-41.634l5.992-113.848a168.021 168.021 0 0 1 4.784-31.916l4.068-16.273" fill="#0296e5"/><path d="m360 120h-208a90.508 90.508 0 0 1 70.156-88.19 150.518 150.518 0 0 1 67.688 0 90.508 90.508 0 0 1 70.156 88.19z" fill="#cbcbcb"/><path d="m184 176h-19.56a20.944 20.944 0 0 0 -20.94 20.944v14.112a20.944 20.944 0 0 0 2.211 9.366 20.944 20.944 0 0 0 18.729 11.578h19.56z" fill="#fdc9a6"/><path d="m224 120v-14a18 18 0 0 1 18-18h28a18 18 0 0 1 18 18v14z" fill="#0296e5"/><path d="m406.7 411.186-110.7-51.186h-80l-110.695 51.186a60.005 60.005 0 0 0 -30.128 31.2l-19.177 45.614h400l-19.177-45.61a60.005 60.005 0 0 0 -30.123-31.204z" fill="#5d70b3"/><path d="m215.5 312v6.7a155.912 155.912 0 0 1 -8 49.3l.808.4a106.424 106.424 0 0 0 95.192-.4 155.883 155.883 0 0 1 -8-49.3v-6.7z" fill="#fdc9a6"/><path d="m295.93 330.1a62.761 62.761 0 0 1 -5.96 4.2 64.333 64.333 0 0 1 -67.94 0 63.515 63.515 0 0 1 -6.91-4.96c.26-3.54.38-7.09.38-10.64v-6.7h80v6.7q0 5.715.43 11.4z" fill="#e6af89"/><path d="m198.293 292.133a210.874 210.874 0 0 1 -21.793-93.351v-30.782a96.87 96.87 0 0 0 51.8-33.375l11.7-14.625 56 40 39.5 8v30.782a210.874 210.874 0 0 1 -21.789 93.351 64.356 64.356 0 0 1 -57.711 35.867 64.356 64.356 0 0 1 -57.707-35.867z" fill="#fdc9a6"/><g fill="#683b0d"><path d="m303.5 184h-24a8 8 0 0 1 0-16h24a8 8 0 0 1 0 16z"/><circle cx="289.496" cy="202" r="11"/><path d="m231.5 184h-23.5a8 8 0 0 1 0-16h23.5a8 8 0 0 1 0 16z"/><circle cx="221.496" cy="202" r="11"/></g><path d="m261.611 280h-13.611a8 8 0 0 1 0-16h13.611a20.866 20.866 0 0 0 13.285-4.788 8 8 0 0 1 10.204 12.322 36.909 36.909 0 0 1 -23.489 8.466z" fill="#e6af89"/><path d="m264 248h-16a8 8 0 0 1 -8-8v-16a8 8 0 0 1 16 0v8h8a8 8 0 0 1 0 16z" fill="#e6af89"/><path d="m96 488v-32a8 8 0 0 1 16 0v32z" fill="#4e5d95"/><path d="m400 488v-32a8 8 0 0 1 16 0v32z" fill="#4e5d95"/><path d="m240 120 43.567 32.676a91.083 91.083 0 0 1 29.919 39.038 91.086 91.086 0 0 1 6.514 33.827v102.459a80 80 0 0 0 32-64v-40.317a97.647 97.647 0 0 0 -4.911-30.577l-2.437-7.394a93.831 93.831 0 0 0 -29.047-42.707l-.616-.514a96.8 96.8 0 0 0 -62.146-22.5c-7.303.009-12.843.009-12.843.009z" fill="#d32b39"/><path d="m256 464a8 8 0 0 1 -6.749-3.7l-56-88a8 8 0 0 1 13.5-8.59l49.249 77.39 49.251-77.394a8 8 0 1 1 13.5 8.59l-56 88a8 8 0 0 1 -6.751 3.704z" fill="#ea9d2d"/><path d="m233.366 488a24 24 0 1 1 45.268 0z" fill="#fbb540"/><path d="m216 112h80v8h-80z" fill="#cbcbcb"/></g></svg>