<svg height="512" viewBox="0 0 512 512" width="512" xmlns="http://www.w3.org/2000/svg"><g id="flat"><path d="m304 312h18.131a52.54 52.54 0 0 0 49.844-35.925 52.55 52.55 0 0 0 2.078-24.653l-16.528-106.767a100.194 100.194 0 0 0 -99.525-88.655 100.194 100.194 0 0 0 -99.786 91.154l-18.9 99.411a52.532 52.532 0 0 0 4.623 33.308l1.541 3.084a52.542 52.542 0 0 0 46.994 29.043z" fill="#026ca2"/><path d="m176.5 184h-12.06a20.944 20.944 0 0 0 -20.94 20.944v14.112a20.944 20.944 0 0 0 2.211 9.366 20.944 20.944 0 0 0 18.729 11.578h19.56z" fill="#fdc9a6"/><path d="m406.7 411.186-110.7-51.186h-80l-110.695 51.186a60.005 60.005 0 0 0 -30.128 31.2l-19.177 45.614h400l-19.177-45.61a60.005 60.005 0 0 0 -30.123-31.204z" fill="#eaeae8"/><path d="m315.02 368.8-13.18-6.1a155.9 155.9 0 0 1 -6.344-44v-6.7h-80v6.7a155.872 155.872 0 0 1 -6.507 44.542l-12.009 5.558-29.06 13.43c.222.512.471 1.01.7 1.518l-.62.252.935.425a96.009 96.009 0 0 0 175.145-2.195z" fill="#fdc9a6"/><path d="m344.08 382.23a96.047 96.047 0 0 1 -176.16 0l29.06-13.43a64.033 64.033 0 0 0 118.04 0z" fill="#e82f3e"/><path d="m96 488v-32a8 8 0 0 1 16 0v32z" fill="#cbcbcb"/><path d="m400 488v-32a8 8 0 0 1 16 0v32z" fill="#cbcbcb"/><path d="m180 288c-15.439 0-28-14.355-28-32s12.561-32 28-32 28 14.355 28 32-12.561 32-28 32zm0-48c-6.5 0-12 7.327-12 16s5.5 16 12 16 12-7.327 12-16-5.495-16-12-16z" fill="#a8a8a8"/><path d="m334.5 184h12.055a20.944 20.944 0 0 1 20.945 20.944v14.112a20.944 20.944 0 0 1 -2.211 9.366 20.944 20.944 0 0 1 -18.738 11.578h-18.551z" fill="#fdc9a6"/><path d="m295.93 330.1a62.761 62.761 0 0 1 -5.96 4.2 64.333 64.333 0 0 1 -67.94 0 63.515 63.515 0 0 1 -6.91-4.96c.26-3.54.38-7.09.38-10.64v-6.7h80v6.7q0 5.715.43 11.4z" fill="#e6af89"/><path d="m198.293 292.133a210.874 210.874 0 0 1 -21.793-93.351v-17.148a15.46 15.46 0 0 1 13.532-15.334 80 80 0 0 0 65.894-54.075l.074-.225.074.221a80 80 0 0 0 65.894 54.079 15.46 15.46 0 0 1 13.532 15.334v17.148a210.874 210.874 0 0 1 -21.789 93.351 64.356 64.356 0 0 1 -57.711 35.867 64.356 64.356 0 0 1 -57.707-35.867z" fill="#fdc9a6"/><g fill="#683b0d"><path d="m303.5 192h-24a8 8 0 0 1 0-16h24a8 8 0 0 1 0 16z"/><circle cx="289.496" cy="210" r="11"/><path d="m231.5 192h-23.5a8 8 0 0 1 0-16h23.5a8 8 0 0 1 0 16z"/><circle cx="221.496" cy="210" r="11"/></g><path d="m256 284.582a49.753 49.753 0 0 1 -19.062-3.817 8 8 0 0 1 6.124-14.784 33.577 33.577 0 0 0 25.876 0 8 8 0 0 1 6.124 14.784 49.753 49.753 0 0 1 -19.062 3.817z" fill="#e6af89"/><path d="m264 256h-16a8 8 0 0 1 -8-8v-16a8 8 0 0 1 16 0v8h8a8 8 0 0 1 0 16z" fill="#e6af89"/></g></svg>