<svg height="512" viewBox="0 0 512 512" width="512" xmlns="http://www.w3.org/2000/svg"><g id="flat"><path d="m304 368 123.807 52.948a37.263 37.263 0 0 1 22.8 29.319l5.393 37.733h-400l5.39-37.733a37.263 37.263 0 0 1 22.8-29.319l123.81-52.948z" fill="#683b0d"/><path d="m208 416h96v72h-96z" fill="#fbb540"/><path d="m360 296a24 24 0 0 0 -24-24h-24l-24 56 64-8z" fill="#961b20"/><path d="m320 280 31.227-13.383a34 34 0 0 0 20.089-37.159l-19.316-109.458-2.007-7.55a46.9 46.9 0 0 0 -30.493-32.45 56.721 56.721 0 0 0 -51.05-32 99.8 99.8 0 0 0 -74.178 33.036l-10.162 11.286a125.086 125.086 0 0 0 -32.11 83.678v144l128 16z" fill="#683b0d"/><path d="m215.5 312v6.7a155.912 155.912 0 0 1 -8 49.3l.808.4a106.424 106.424 0 0 0 95.192-.4 155.883 155.883 0 0 1 -8-49.3v-6.7z" fill="#e6af89"/><path d="m256.279 328h-1a62.852 62.852 0 0 1 -56.2-34.42l-.539-1.065c-14.819-29.266-22.54-83.715-22.54-116.515l32.9-5.036a94.486 94.486 0 0 0 79.6-82.964l47.5 88v24.34a204.207 204.207 0 0 1 -21.1 90.4l-.591 1.2a64.716 64.716 0 0 1 -58.03 36.06z" fill="#fdc9a6"/><path d="m96 488v-32a8 8 0 0 1 16 0v32z" fill="#55300b"/><path d="m400 488v-32a8 8 0 0 1 16 0v32z" fill="#55300b"/><path d="m360 292.627a170.571 170.571 0 0 1 -208 0v24.042a48 48 0 0 0 5.068 21.466l2.932 5.865-2.933 5.865a48 48 0 0 0 -5.067 21.466v20.669a170.571 170.571 0 0 0 208 0v-20.669a48 48 0 0 0 -5.067-21.466l-2.933-5.865 2.932-5.865a48 48 0 0 0 5.068-21.466z" fill="#ff6268"/><path d="m184 176h-19.56a20.944 20.944 0 0 0 -20.94 20.944v14.112a20.944 20.944 0 0 0 2.211 9.366 20.944 20.944 0 0 0 18.729 11.578h19.56z" fill="#fdc9a6"/><path d="m335.5 176h11.055a20.944 20.944 0 0 1 20.945 20.944v14.112a20.944 20.944 0 0 1 -2.211 9.366 20.944 20.944 0 0 1 -18.738 11.578h-18.551z" fill="#fdc9a6"/><path d="m208 368v120h-40l-8-40 16-8-24-24z" fill="#55300b"/><path d="m304 368v120h40l8-40-16-8 24-24z" fill="#55300b"/><g fill="#ff6268"><path d="m360 292.627a170.571 170.571 0 0 1 -208 0v24.042a48 48 0 0 0 5.068 21.466l2.932 5.865-2.933 5.865a48 48 0 0 0 -5.067 21.466v20.669a170.571 170.571 0 0 0 208 0v-20.669a48 48 0 0 0 -5.067-21.466l-2.933-5.865 2.932-5.865a48 48 0 0 0 5.068-21.466z"/><path d="m256 368a8 8 0 0 1 -8 8 163.014 163.014 0 0 1 -64.56-13.25l-26.59-11.4c-.14-.06-.28-.11-.41-.18.21-.44.41-.87.63-1.3l2.93-5.87-2.93-5.86a46.036 46.036 0 0 1 -2.42-5.77l8.72 4.37 26.37 11.3a146.95 146.95 0 0 0 58.26 11.96 8 8 0 0 1 8 8z"/><path d="m360 371.33v5.37l-23.44 10.05a163.014 163.014 0 0 1 -64.56 13.25 8 8 0 0 1 0-16 146.95 146.95 0 0 0 58.26-11.96l26.59-11.39a8.218 8.218 0 0 1 1.82-.54 48.022 48.022 0 0 1 1.33 11.22z"/></g><path d="m360 371.33v5.37l-23.44 10.05a163.014 163.014 0 0 1 -64.56 13.25 8 8 0 0 1 0-16 146.95 146.95 0 0 0 58.26-11.96l26.59-11.39a8.218 8.218 0 0 1 1.82-.54 48.022 48.022 0 0 1 1.33 11.22z" fill="#cf5252"/><path d="m256 283.753a43.8 43.8 0 0 1 -19.578-4.6 8 8 0 1 1 7.156-14.31 27.917 27.917 0 0 0 24.844 0 8 8 0 1 1 7.156 14.31 43.8 43.8 0 0 1 -19.578 4.6z" fill="#e6af89"/><path d="m256 248h-8a8 8 0 0 1 -8-8v-40a8 8 0 0 1 16 0v32a8 8 0 0 1 0 16z" fill="#e6af89"/><path d="m176 192h160v16h-160z" fill="#0296e5"/><path d="m256 368a8 8 0 0 1 -8 8 163.014 163.014 0 0 1 -64.56-13.25l-26.59-11.4c-.14-.06-.28-.11-.41-.18.21-.44.41-.87.63-1.3l2.93-5.87-2.93-5.86a46.036 46.036 0 0 1 -2.42-5.77l8.72 4.37 26.37 11.3a146.95 146.95 0 0 0 58.26 11.96 8 8 0 0 1 8 8z" fill="#cf5252"/><circle cx="216" cy="200" fill="#eaeae8" r="32"/><circle cx="216" cy="200" fill="#683b0d" r="8"/><circle cx="296" cy="200" fill="#eaeae8" r="32"/><circle cx="296" cy="200" fill="#683b0d" r="8"/><path d="m216 236a36 36 0 1 1 36-36 36.04 36.04 0 0 1 -36 36zm0-56a20 20 0 1 0 20 20 20.023 20.023 0 0 0 -20-20z" fill="#0296e5"/><path d="m296 236a36 36 0 1 1 36-36 36.04 36.04 0 0 1 -36 36zm0-56a20 20 0 1 0 20 20 20.023 20.023 0 0 0 -20-20z" fill="#0296e5"/></g></svg>