<svg height="512" viewBox="0 0 512 512" width="512" xmlns="http://www.w3.org/2000/svg"><g id="flat"><path d="m410.511 410.851-114.511-66.851h-80l-114.511 66.851a60 60 0 0 0 -25.059 28.56l-20.43 48.589h400l-20.43-48.589a60 60 0 0 0 -25.059-28.56z" fill="#93b4eb"/><path d="m200 488 9.91-89.19h93.291l8.799 89.19z" fill="#eaeae8"/><path d="m295.5 344v-32h-80v32l-7.5 60.494a170.906 170.906 0 0 0 96 0z" fill="#fdc9a6"/><path d="m313.9 296h62.1l-18.475-159.345a100.194 100.194 0 0 0 -99.525-88.655 100.194 100.194 0 0 0 -99.786 91.154l-14.214 156.846h54.034" fill="#683b0d"/><path d="m295.5 312v18.45a64.341 64.341 0 0 1 -73.47 3.85 61.989 61.989 0 0 1 -6.53-4.66v-17.64z" fill="#e6af89"/><path d="m198.293 292.133a210.874 210.874 0 0 1 -21.793-93.351v-30.782l39.752-10.017a48 48 0 0 0 32.838-28.718l6.91-17.265 6.906 17.265a48 48 0 0 0 32.838 28.718l39.756 10.017v30.782a210.874 210.874 0 0 1 -21.789 93.351 64.356 64.356 0 0 1 -57.711 35.867 64.356 64.356 0 0 1 -57.707-35.867z" fill="#fdc9a6"/><g fill="#55300b"><path d="m303.5 192a8.015 8.015 0 0 1 -2.531-.412l-24-8a8 8 0 1 1 5.06-15.18l24 8a8 8 0 0 1 -2.529 15.592z"/><circle cx="289.496" cy="202" r="11"/><path d="m208 192a8 8 0 0 1 -2.577-15.575l23.5-8a8 8 0 1 1 5.156 15.146l-23.5 8a7.985 7.985 0 0 1 -2.579.429z"/><circle cx="221.496" cy="202" r="11"/></g><path d="m256 279.985a30.531 30.531 0 0 1 -21.656-8.955 8 8 0 0 1 11.312-11.314 14.646 14.646 0 0 0 20.688 0 8 8 0 1 1 11.312 11.314 30.531 30.531 0 0 1 -21.656 8.955z" fill="#e6af89"/><path d="m264 248h-16a8 8 0 0 1 -8-8v-16a8 8 0 0 1 16 0v8h8a8 8 0 0 1 0 16z" fill="#e6af89"/><path d="m96 488v-32a8 8 0 0 1 16 0v32z" fill="#5d70b3"/><path d="m400 488v-32a8 8 0 0 1 16 0v32z" fill="#5d70b3"/><path d="m179.5 176h-15.06a20.944 20.944 0 0 0 -20.94 20.944v14.112a20.944 20.944 0 0 0 2.211 9.366 20.944 20.944 0 0 0 18.729 11.578h17.06z" fill="#fdc9a6"/><path d="m330.5 176h16.055a20.944 20.944 0 0 1 20.945 20.944v14.112a20.944 20.944 0 0 1 -2.211 9.366 20.944 20.944 0 0 1 -18.738 11.578h-17.051z" fill="#fdc9a6"/><path d="m216 344-16 144-48-48z" fill="#b0d2fd"/><path d="m296 344 16 144 48-48z" fill="#b0d2fd"/><path d="m208 168a8 8 0 0 1 -7.591-10.532l16-48a8 8 0 0 1 15.18 5.06l-16 48a8 8 0 0 1 -7.589 5.472z" fill="#55300b"/><path d="m176 176a8 8 0 0 1 -7.591-10.532l16-48a8 8 0 0 1 15.18 5.06l-16 48a8 8 0 0 1 -7.589 5.472z" fill="#55300b"/><path d="m304 168a8 8 0 0 1 -7.589-5.472l-16-48a8 8 0 1 1 15.18-5.06l16 48a8 8 0 0 1 -7.591 10.532z" fill="#55300b"/><path d="m336 176a8 8 0 0 1 -7.589-5.472l-16-48a8 8 0 1 1 15.18-5.06l16 48a8 8 0 0 1 -7.591 10.532z" fill="#55300b"/></g></svg>