<svg height="512" viewBox="0 0 512 512" width="512" xmlns="http://www.w3.org/2000/svg"><g id="flat"><path d="m128 376 3.619-10.856a47.588 47.588 0 0 0 1.021-26.585l-.909-3.634a47.578 47.578 0 0 1 1.983-29.209l4.572-11.432a47.578 47.578 0 0 0 1.983-29.209 47.576 47.576 0 0 1 3.6-32.817l8.131-16.258v-98.379a53.9 53.9 0 0 1 24-44.844l6.535-13.07a53.892 53.892 0 0 1 29.282-26.361l9.06-3.4a93.417 93.417 0 0 1 69.6 1.605 93.419 93.419 0 0 1 36.149 27.508l15.508 19.385a53.831 53.831 0 0 0 3.976 4.442 47.421 47.421 0 0 1 13.89 33.533v33.74a37.7 37.7 0 0 0 5.542 19.675l5.732 9.368a48.626 48.626 0 0 1 3.671 43.437 37.7 37.7 0 0 0 2.675 33.395l4.76 7.932a37.7 37.7 0 0 1 2.675 33.395l-2.768 6.921a37.7 37.7 0 0 0 1.284 30.859 37.7 37.7 0 0 1 0 33.718l-15.571 31.141z" fill="#a8a8a8"/><path d="m296 326.636 150.883 88.493a60 60 0 0 1 29.086 43.576l4.031 29.295h-448l4.453-40.835a60 60 0 0 1 32.814-47.165l146.733-72z" fill="#cbcbcb"/><path d="m256 312.777a70.9 70.9 0 0 1 -65.827-44.567 198.16 198.16 0 0 1 -14.173-73.596v-34.158a122.96 122.96 0 0 1 8.794-45.664 29.422 29.422 0 0 1 26.6-18.486 29.423 29.423 0 0 1 21.518 8.609l15.388 15.385a76.229 76.229 0 0 0 37.365 20.511l8.731 1.941a53.122 53.122 0 0 1 41.604 51.862 198.16 198.16 0 0 1 -14.173 73.6 70.9 70.9 0 0 1 -65.827 44.563z" fill="#fdc9a6"/><path d="m208 328.777 56 32-72 47.223-8.942-70.671z" fill="#eaeae8"/><path d="m304 328.777-56 32 72 47.223 8.708-68.822z" fill="#eaeae8"/><path d="m232 376h48v112h-48z" fill="#eaeae8"/><circle cx="256" cy="416" fill="#656666" r="8"/><circle cx="256" cy="448" fill="#656666" r="8"/><path d="m312 334.636-16-8v-32h-80v32l-16 8" fill="none" stroke="#000" stroke-linecap="round" stroke-linejoin="round" stroke-width="16"/><g fill="#a8a8a8"><path d="m304 168.777h-24a8 8 0 0 1 0-16h24a8 8 0 0 1 0 16z"/><circle cx="290" cy="184.636" r="10"/><path d="m232 168.777h-24a8 8 0 0 1 0-16h24a8 8 0 0 1 0 16z"/><circle cx="222" cy="184.636" r="10"/></g><path d="m248 232a8 8 0 0 1 -7.513-10.751l8-21.859a8 8 0 1 1 15.026 5.5l-8 21.859a8 8 0 0 1 -7.513 5.251z" fill="#e6af89"/><path d="m176 158.636h-11.056a20.944 20.944 0 0 0 -20.944 20.945v14.111a20.948 20.948 0 0 0 2.211 9.367 20.945 20.945 0 0 0 18.733 11.577h19.056z" fill="#fdc9a6"/><path d="m152 352v136h-72v-96z" fill="#961b20"/><path d="m360 352v136h72v-96z" fill="#961b20"/><path d="m280.285 234.4-6.873 2.486a25.626 25.626 0 0 0 -32.873 2.324v-7.474a29.366 29.366 0 0 1 -20.421 8.264h-.165a29.366 29.366 0 0 1 -20.508-8.348l-23.445-22.875v97.06a80 80 0 0 0 50.289 74.278 80 80 0 0 0 59.422 0 80 80 0 0 0 50.289-74.278v-97.06l-15.184 19.753a29.365 29.365 0 0 1 -23.283 11.47 29.366 29.366 0 0 1 -17.248-5.6z" fill="#b2b2b2"/><path d="m224 320v56a8.064 8.064 0 0 1 -.55 2.92 79.746 79.746 0 0 1 -15.45-9.08v-49.84a8 8 0 0 1 16 0z" fill="#b2b2b2"/><path d="m264 320v65.43a78.254 78.254 0 0 1 -16 0v-65.43a8 8 0 0 1 16 0z" fill="#b2b2b2"/><path d="m304 320v49.84a79.619 79.619 0 0 1 -16 9.32v-59.16a8 8 0 0 1 16 0z" fill="#b2b2b2"/><path d="m272 264.777h-32a8 8 0 0 1 0-16h32a8 8 0 0 1 0 16z" fill="#e6af89"/><path d="m264 288h-16a8 8 0 0 1 0-16h16a8 8 0 0 1 0 16z" fill="#e6af89"/><path d="m200 236 2.664 7.991a29.262 29.262 0 0 0 27.761 20.009 29.271 29.271 0 0 0 13.087-3.089l12.488-6.244 12.488 6.244a29.271 29.271 0 0 0 13.087 3.089 29.262 29.262 0 0 0 27.761-20.009l2.664-7.991h-7.13a88.406 88.406 0 0 1 -39.537-9.333 33.97 33.97 0 0 0 -18.666 0 88.406 88.406 0 0 1 -39.537 9.333z" fill="#cbcbcb"/><path d="m224 320v56a8.064 8.064 0 0 1 -.55 2.92 79.746 79.746 0 0 1 -15.45-9.08v-49.84a8 8 0 0 1 16 0z" fill="#a8a8a8"/><path d="m264 320v65.43a78.254 78.254 0 0 1 -16 0v-65.43a8 8 0 0 1 16 0z" fill="#a8a8a8"/><path d="m304 320v49.84a79.619 79.619 0 0 1 -16 9.32v-59.16a8 8 0 0 1 16 0z" fill="#a8a8a8"/></g></svg>