<svg height="512" viewBox="0 0 512 512" width="512" xmlns="http://www.w3.org/2000/svg"><g id="flat"><path d="m304 368 123.807 52.948a37.263 37.263 0 0 1 22.8 29.319l5.393 37.733h-400l5.39-37.733a37.263 37.263 0 0 1 22.8-29.319l123.81-52.948z" fill="#0bafea"/><path d="m215.5 312v23.971a49.5 49.5 0 0 1 -2.539 15.646l-5.461 16.383.5 48h96l-.5-48-5.461-16.383a49.467 49.467 0 0 1 -2.539-15.646v-23.971z" fill="#fdc9a6"/><path d="m295.92 330.03a64.692 64.692 0 0 1 -80.82-.41q.405-5.445.4-10.92v-6.7h80v6.7c0 3.79.14 7.56.42 11.33z" fill="#fdc9a6"/><path d="m295.92 330.03a64.692 64.692 0 0 1 -80.82-.41q.405-5.445.4-10.92v-6.7h80v6.7c0 3.79.14 7.56.42 11.33z" fill="#e6af89"/><path d="m96 488v-32a8 8 0 0 1 16 0v32z" fill="#0a9acd"/><path d="m400 488v-32a8 8 0 0 1 16 0v32z" fill="#0a9acd"/><path d="m313.9 296h12.844a42.994 42.994 0 0 0 42.6-48.8l-17.344-127.2-2.007-7.55a46.9 46.9 0 0 0 -30.493-32.45 56.721 56.721 0 0 0 -51.05-32h-6.338q-1.446 0-2.887.038c-45.527 1.188-84.939 32.08-98.377 75.6a44.286 44.286 0 0 0 -1.775 8.917l-7.073 75.445-3.738 41.113a43 43 0 0 0 42.818 46.887z" fill="#683b0d"/><path d="m255.775 328a64.719 64.719 0 0 1 -57.74-35.485c-9.9-19.545-16.626-50.32-20.006-78.379a51.5 51.5 0 0 1 29.67-52.927l35.233-16.183a80.026 80.026 0 0 0 45.068-57.026l47.5 88v23.218a209.02 209.02 0 0 1 -21.6 92.524l-.094.189a64.719 64.719 0 0 1 -58.031 36.069z" fill="#fdc9a6"/><g fill="#683b0d"><path d="m303.5 192a7.983 7.983 0 0 1 -2.531-.413l-24-8a8 8 0 1 1 5.059-15.178l24 8a8 8 0 0 1 -2.528 15.591z"/><circle cx="289.496" cy="202" r="11"/><path d="m208 192a8 8 0 0 1 -2.579-15.575l23.5-8a8 8 0 1 1 5.157 15.146l-23.5 8a7.994 7.994 0 0 1 -2.578.429z"/><circle cx="221.496" cy="202" r="11"/></g><path d="m256 280a30.533 30.533 0 0 1 -21.657-8.957 8 8 0 0 1 11.314-11.313 14.644 14.644 0 0 0 20.686 0 8 8 0 0 1 11.314 11.313 30.533 30.533 0 0 1 -21.657 8.957z" fill="#e6af89"/><path d="m264 248.014h-16a8 8 0 0 1 -8-8v-16a8 8 0 0 1 16 0v8h8a8 8 0 0 1 0 16z" fill="#e6af89"/><path d="m335.5 176h11.055a20.944 20.944 0 0 1 20.945 20.944v14.112a20.944 20.944 0 0 1 -2.211 9.366 20.944 20.944 0 0 1 -18.738 11.578h-18.551z" fill="#fdc9a6"/><path d="m304 488h-96v-83.506a170.906 170.906 0 0 0 96 0z" fill="#fdfefb"/><path d="m208 368v120h-40l-8-40 16-8-24-24z" fill="#0a9acd"/><path d="m304 368v120h40l8-40-16-8 24-24z" fill="#0a9acd"/></g></svg>