<svg height="512" viewBox="0 0 512 512" width="512" xmlns="http://www.w3.org/2000/svg"><g id="flat"><path d="m296 341.859 146.1 68.187a60 60 0 0 1 34.13 46.675l3.77 29.138h-448l3.768-29.138a60 60 0 0 1 34.132-46.675l146.1-68.187" fill="#5e8569"/><path d="m312 349.859-16-8v-32h-80v32l-16 8 56 58.141z" fill="#f6bb92"/><path d="m296 309.86v13.78c-.08.06-.17.11-.25.17a70.9 70.9 0 0 1 -79.75-.17v-13.78z" fill="#f6bb92"/><path d="m248 414.4-48-14.4v-24h-32l6.55-16.376a90.744 90.744 0 0 1 29.8-38.89l11.65-8.734v32.26a38 38 0 0 0 11.13 26.87l28.87 28.87z" fill="#85bc94"/><path d="m296 309.86v13.78c-.08.06-.17.11-.25.17a70.9 70.9 0 0 1 -79.75-.17v-13.78z" fill="#bd9070"/><g fill="#55785f"><path d="m72 485.859v-32a8 8 0 1 1 16 0v32z"/><path d="m424 485.859v-32a8 8 0 1 1 16 0v32z"/><path d="m240 486h-16v-54l16-16z"/><circle cx="256" cy="453.859" r="8"/><path d="m384 464h-64a8 8 0 0 1 0-16h64a8 8 0 0 1 0 16z"/></g><path d="m296 312v32.26a38 38 0 0 1 -11.13 26.87l-52.87 52.87 80-24v-24h32l-6.55-16.376a90.744 90.744 0 0 0 -29.805-38.89z" fill="#85bc94"/><path d="m316.64 28.071-1.442-.16a62 62 0 0 0 -56.447 24.421l-2.751 3.668-2.751-3.668a62 62 0 0 0 -56.449-24.421l-1.442.16a62 62 0 0 0 -49.809 36.44l-8.1 18.224a60 60 0 0 0 -2.092 43.342l16.643 49.923 2.871 8 199.613 5.859 5.516-13.859 16.641-49.923a60 60 0 0 0 -2.092-43.342l-8.1-18.224a62 62 0 0 0 -49.809-36.44z" fill="#48351b"/><path d="m256 328a70.9 70.9 0 0 1 -65.827-44.567 198.156 198.156 0 0 1 -14.173-73.596v-57.837l24-24h6.124a56.586 56.586 0 0 0 49.876-29.859 56.586 56.586 0 0 0 49.876 29.859h6.124l24 24v57.837a198.156 198.156 0 0 1 -14.173 73.6 70.9 70.9 0 0 1 -65.827 44.563z" fill="#f6bb92"/><path d="m304 181.859h-24a8 8 0 0 1 0-16h24a8 8 0 0 1 0 16z" fill="#48351b"/><circle cx="290" cy="199.859" fill="#48351b" r="10"/><path d="m232 181.859h-24a8 8 0 0 1 0-16h24a8 8 0 0 1 0 16z" fill="#48351b"/><circle cx="222" cy="199.859" fill="#48351b" r="10"/><path d="m264 288h-16a8 8 0 0 1 0-16h16a8 8 0 0 1 0 16z" fill="#bd9070"/><path d="m264 245.859h-16a8 8 0 0 1 -7.59-10.53l8-24a8 8 0 0 1 15.18 5.061l-4.49 13.469h4.9a8 8 0 0 1 0 16z" fill="#bd9070"/><path d="m184 173.859h-19.056a20.944 20.944 0 0 0 -20.944 20.941v14.111a20.948 20.948 0 0 0 2.211 9.367 20.945 20.945 0 0 0 18.733 11.577h12.056z" fill="#f6bb92"/><path d="m328 173.859h19.056a20.944 20.944 0 0 1 20.944 20.941v14.111a20.948 20.948 0 0 1 -2.211 9.367 20.945 20.945 0 0 1 -18.733 11.577h-15.056z" fill="#f6bb92"/></g></svg>