<?xml version="1.0" encoding="iso-8859-1"?>
<!-- Generator: Adobe Illustrator 18.0.0, SVG Export Plug-In . SVG Version: 6.00 Build 0)  -->
<!DOCTYPE svg PUBLIC "-//W3C//DTD SVG 1.1//EN" "http://www.w3.org/Graphics/SVG/1.1/DTD/svg11.dtd">
<svg version="1.1" id="Capa_1" xmlns="http://www.w3.org/2000/svg" xmlns:xlink="http://www.w3.org/1999/xlink" x="0px" y="0px"
	 viewBox="0 0 24 24" style="enable-background:new 0 0 24 24;" xml:space="preserve">
	 <g color="white">
	<path xmlns="http://www.w3.org/2000/svg" d="M21,8H8A1,1,0,0,0,7,9V19a1,1,0,0,0,1,1H18l4,3V9A1,1,0,0,0,21,8ZM20,19.11L18.52,18H9V10H20v9.11ZM12,15h5v1H12V15ZM4,13H5v2H3a1,1,0,0,1-1-1V4A1,1,0,0,1,3,3H16a1,1,0,0,1,1,1V6H15V5H4v8Zm14,0H11V12h7v1Z" style="fill: currentColor"/>
	</g>
</svg>
