<svg height="512" viewBox="0 0 64 64" width="512" xmlns="http://www.w3.org/2000/svg"><g id="Search_map" data-name="Search map"><g fill="#9bc9ff"><path d="m46.21 43.38-2.83 2.83-4.3-4.3c.51-.42 1-.87 1.48-1.35s.93-.97 1.35-1.48z"/><path d="m58.82 53.16a4 4 0 0 1 -5.66 5.66l-11.19-11.19 5.66-5.66z"/><path d="m21 15v16l-8 4v-16z"/><path d="m29 19v16l-8-4v-16z"/><path d="m37 15v16l-8 4v-16z"/><path d="m40.56 9.44a22.018 22.018 0 0 1 1.35 29.64c-.42.51-.87 1-1.35 1.48s-.97.93-1.48 1.35a22 22 0 1 1 1.48-32.47zm2.44 15.56a17.813 17.813 0 0 0 -4.07-11.4 16.558 16.558 0 0 0 -1.2-1.33 18 18 0 0 0 -27.21 23.43 17.69 17.69 0 0 0 1.75 2.03 18 18 0 0 0 30.73-12.73z"/></g><path d="m38.435 11.565a19 19 0 1 0 -26.87 26.87 19 19 0 1 0 26.87-26.87zm-1.414 25.456a17 17 0 1 1 4.979-12.021 16.893 16.893 0 0 1 -4.979 12.021z" fill="#1e81ce"/><path d="m59.527 52.456-11.193-11.192a1 1 0 0 0 -1.414 0l-.707.707-2.982-2.982a22.985 22.985 0 0 0 -18.231-36.989 23 23 0 0 0 -16.263 39.263 22.954 22.954 0 0 0 30.252 1.968l2.982 2.982-.707.707a1 1 0 0 0 0 1.414l11.192 11.193a5 5 0 0 0 7.071-7.071zm-49.376-12.607a21 21 0 1 1 29.7-29.7 21 21 0 1 1 -29.7 29.7zm30.371 2.087c.246-.226.5-.435.741-.673s.447-.495.673-.741l2.864 2.863-1.415 1.415zm17.591 16.177a3.005 3.005 0 0 1 -4.243 0l-10.485-10.486 4.242-4.242 10.486 10.485a3.005 3.005 0 0 1 0 4.243z" fill="#1e81ce"/><path d="m37.526 14.149a1.009 1.009 0 0 0 -.973-.044l-7.553 3.777-7.553-3.777a1.843 1.843 0 0 0 -.447-.105 1.843 1.843 0 0 0 -.447.105l-8 4a1 1 0 0 0 -.553.895v16a1 1 0 0 0 1.447.9l7.553-3.782 7.553 3.782a1.843 1.843 0 0 0 .447.1 1.843 1.843 0 0 0 .447-.1l8-4a1 1 0 0 0 .553-.9v-16a1 1 0 0 0 -.474-.851zm-15.526 2.469 6 3v13.764l-6-3zm-8 3 6-3v13.764l-6 3zm22 10.764-6 3v-13.764l6-3z" fill="#1e81ce"/></g></svg>